<svg width="269" height="50" viewBox="0 0 269 50" fill="none" xmlns="http://www.w3.org/2000/svg">
<path d="M62.76 13H71.7C74.58 13 76.83 13.62 78.45 14.86C80.07 16.1 80.88 17.93 80.88 20.35C80.88 22.77 80.07 24.56 78.45 25.72C76.85 26.88 74.6 27.46 71.7 27.46H69.75V33.19C69.75 33.41 69.67 33.6 69.51 33.76C69.35 33.92 69.16 34 68.94 34H62.76C62.54 34 62.35 33.92 62.19 33.76C62.03 33.6 61.95 33.41 61.95 33.19V13.81C61.95 13.59 62.03 13.4 62.19 13.24C62.35 13.08 62.54 13 62.76 13ZM69.6 18.58V21.91H71.7C72.06 21.91 72.38 21.78 72.66 21.52C72.94 21.24 73.08 20.85 73.08 20.35C73.08 19.85 72.97 19.43 72.75 19.09C72.53 18.75 72.18 18.58 71.7 18.58H69.6ZM90.6476 34H84.5276C84.3076 34 84.1176 33.92 83.9576 33.76C83.7976 33.6 83.7176 33.41 83.7176 33.19V13.81C83.7176 13.59 83.7976 13.4 83.9576 13.24C84.1176 13.08 84.3076 13 84.5276 13H90.6476C90.8676 13 91.0576 13.08 91.2176 13.24C91.3776 13.4 91.4576 13.59 91.4576 13.81V33.19C91.4576 33.41 91.3776 33.6 91.2176 33.76C91.0576 33.92 90.8676 34 90.6476 34ZM112.688 27.85C112.908 27.85 113.098 27.93 113.258 28.09C113.418 28.25 113.498 28.44 113.498 28.66V33.19C113.498 33.41 113.418 33.6 113.258 33.76C113.098 33.92 112.908 34 112.688 34H95.5584C95.3384 34 95.1484 33.92 94.9884 33.76C94.8284 33.6 94.7484 33.41 94.7484 33.19V28.87C94.7484 28.47 94.8984 28.12 95.1984 27.82L103.598 19.09H95.7084C95.4884 19.09 95.2984 19.01 95.1384 18.85C94.9784 18.69 94.8984 18.5 94.8984 18.28V13.81C94.8984 13.59 94.9784 13.4 95.1384 13.24C95.2984 13.08 95.4884 13 95.7084 13H112.298C112.518 13 112.708 13.08 112.868 13.24C113.028 13.4 113.108 13.59 113.108 13.81V18.07C113.108 18.47 112.978 18.8 112.718 19.06L104.768 27.85H112.688ZM134.134 27.85C134.354 27.85 134.544 27.93 134.704 28.09C134.864 28.25 134.944 28.44 134.944 28.66V33.19C134.944 33.41 134.864 33.6 134.704 33.76C134.544 33.92 134.354 34 134.134 34H117.004C116.784 34 116.594 33.92 116.434 33.76C116.274 33.6 116.194 33.41 116.194 33.19V28.87C116.194 28.47 116.344 28.12 116.644 27.82L125.044 19.09H117.154C116.934 19.09 116.744 19.01 116.584 18.85C116.424 18.69 116.344 18.5 116.344 18.28V13.81C116.344 13.59 116.424 13.4 116.584 13.24C116.744 13.08 116.934 13 117.154 13H133.744C133.964 13 134.154 13.08 134.314 13.24C134.474 13.4 134.554 13.59 134.554 13.81V18.07C134.554 18.47 134.424 18.8 134.164 19.06L126.214 27.85H134.134ZM144.809 13H151.319C152.039 13 152.489 13.33 152.669 13.99L159.359 33.13C159.379 33.19 159.389 33.29 159.389 33.43C159.389 33.55 159.319 33.68 159.179 33.82C159.059 33.94 158.909 34 158.729 34H153.179C152.579 34 152.189 33.75 152.009 33.25L151.289 31.27H144.839L144.119 33.25C143.939 33.75 143.549 34 142.949 34H137.399C137.219 34 137.059 33.94 136.919 33.82C136.799 33.68 136.739 33.55 136.739 33.43C136.739 33.29 136.749 33.19 136.769 33.13L143.459 13.99C143.639 13.33 144.089 13 144.809 13ZM146.369 25.42H149.759L148.049 19.84L146.369 25.42ZM162.604 13H177.724C177.944 13 178.134 13.08 178.294 13.24C178.454 13.4 178.534 13.59 178.534 13.81V18.37C178.534 18.59 178.454 18.78 178.294 18.94C178.134 19.1 177.944 19.18 177.724 19.18H169.144V21.4H177.124C177.344 21.4 177.534 21.48 177.694 21.64C177.854 21.8 177.934 21.99 177.934 22.21V26.74C177.934 26.96 177.854 27.15 177.694 27.31C177.534 27.47 177.344 27.55 177.124 27.55H169.144V33.19C169.144 33.41 169.064 33.6 168.904 33.76C168.744 33.92 168.554 34 168.334 34H162.604C162.384 34 162.194 33.92 162.034 33.76C161.874 33.6 161.794 33.41 161.794 33.19V13.81C161.794 13.59 161.874 13.4 162.034 13.24C162.194 13.08 162.384 13 162.604 13ZM189.306 27.85H197.616C197.836 27.85 198.026 27.93 198.186 28.09C198.346 28.25 198.426 28.44 198.426 28.66V33.19C198.426 33.41 198.346 33.6 198.186 33.76C198.026 33.92 197.836 34 197.616 34H182.496C182.276 34 182.086 33.92 181.926 33.76C181.766 33.6 181.686 33.41 181.686 33.19V13.81C181.686 13.59 181.766 13.4 181.926 13.24C182.086 13.08 182.276 13 182.496 13H188.496C188.716 13 188.906 13.08 189.066 13.24C189.226 13.4 189.306 13.59 189.306 13.81V27.85ZM207.709 13H214.219C214.939 13 215.389 13.33 215.569 13.99L222.259 33.13C222.279 33.19 222.289 33.29 222.289 33.43C222.289 33.55 222.219 33.68 222.079 33.82C221.959 33.94 221.809 34 221.629 34H216.079C215.479 34 215.089 33.75 214.909 33.25L214.189 31.27H207.739L207.019 33.25C206.839 33.75 206.449 34 205.849 34H200.299C200.119 34 199.959 33.94 199.819 33.82C199.699 33.68 199.639 33.55 199.639 33.43C199.639 33.29 199.649 33.19 199.669 33.13L206.359 13.99C206.539 13.33 206.989 13 207.709 13ZM209.269 25.42H212.659L210.949 19.84L209.269 25.42ZM224.154 19.6C224.154 17.56 224.994 15.9 226.674 14.62C228.374 13.34 230.594 12.7 233.334 12.7C236.094 12.7 238.344 13.37 240.084 14.71C241.844 16.05 242.724 17.45 242.724 18.91C242.724 19.09 242.654 19.25 242.514 19.39C242.394 19.51 242.254 19.57 242.094 19.57H236.094C235.634 19.57 235.214 19.4 234.834 19.06C234.454 18.72 233.944 18.55 233.304 18.55C232.344 18.55 231.864 18.83 231.864 19.39C231.864 19.69 232.094 19.94 232.554 20.14C233.034 20.34 233.914 20.52 235.194 20.68C238.174 21.06 240.294 21.76 241.554 22.78C242.834 23.78 243.474 25.31 243.474 27.37C243.474 29.41 242.534 31.08 240.654 32.38C238.794 33.66 236.354 34.3 233.334 34.3C230.314 34.3 227.944 33.68 226.224 32.44C224.504 31.2 223.644 29.69 223.644 27.91C223.644 27.73 223.704 27.58 223.824 27.46C223.964 27.32 224.124 27.25 224.304 27.25H230.004C230.424 27.25 230.884 27.45 231.384 27.85C231.904 28.25 232.614 28.45 233.514 28.45C235.014 28.45 235.764 28.17 235.764 27.61C235.764 27.25 235.494 26.98 234.954 26.8C234.414 26.6 233.394 26.4 231.894 26.2C226.734 25.52 224.154 23.32 224.154 19.6ZM259.485 13H265.365C265.585 13 265.775 13.08 265.935 13.24C266.095 13.4 266.175 13.59 266.175 13.81V33.19C266.175 33.41 266.095 33.6 265.935 33.76C265.775 33.92 265.585 34 265.365 34H259.485C259.265 34 259.075 33.92 258.915 33.76C258.755 33.6 258.675 33.41 258.675 33.19V26.71H253.815V33.19C253.815 33.41 253.735 33.6 253.575 33.76C253.415 33.92 253.225 34 253.005 34H247.125C246.905 34 246.715 33.93 246.555 33.79C246.395 33.63 246.315 33.43 246.315 33.19V13.81C246.315 13.59 246.395 13.4 246.555 13.24C246.715 13.08 246.905 13 247.125 13H253.005C253.225 13 253.415 13.08 253.575 13.24C253.735 13.4 253.815 13.59 253.815 13.81V20.11H258.675V13.81C258.675 13.59 258.755 13.4 258.915 13.24C259.075 13.08 259.265 13 259.485 13Z" fill="black"/>
<path d="M35.9559 2.24567C36.4993 3.58605 36.9901 4.89676 37.4299 6.17802C38.7516 5.71437 40.2011 5.59836 41.3142 5.69306C41.7619 5.75969 42.0708 6.17682 42.004 6.62452C41.9365 7.07162 41.5197 7.37957 41.0725 7.31273C39.8659 7.22139 38.8874 7.37161 37.9484 7.74164C38.4003 9.1657 38.7884 10.5535 39.12 11.9092C40.4299 11.4035 41.8594 11.1999 42.977 11.2818C43.4264 11.3334 43.7488 11.7399 43.6972 12.1893C43.6455 12.6408 43.2362 12.9639 42.785 12.9095C41.4793 12.8339 40.4643 13.0607 39.4913 13.5192C39.7546 14.7433 39.9718 15.9411 40.1442 17.1138C41.3002 16.8292 42.4704 16.8407 43.6124 16.9985C44.0548 17.0935 44.3363 17.5292 44.2414 17.9716C44.1463 18.4139 43.7107 18.6955 43.2683 18.6006C42.1545 18.4458 41.2454 18.5095 40.3619 18.775C40.8164 22.7436 40.7761 26.4331 40.3861 29.9317C41.394 30.2017 42.4442 30.2624 43.3166 30.0821C43.7595 29.9862 44.1962 30.268 44.2912 30.7111C44.3864 31.1519 44.1075 31.5868 43.6671 31.6841C42.361 31.8266 41.2517 31.8341 40.1733 31.5865C39.9962 32.8141 39.7661 34.0132 39.5139 35.2003C40.6314 35.6937 41.8605 35.9027 42.894 35.7732C43.3416 35.7102 43.7555 36.0219 43.8191 36.4694C43.8817 36.9192 43.5666 37.3341 43.1165 37.3945C41.6013 37.4224 40.3326 37.3201 39.149 36.8583C38.8122 38.2544 38.427 39.6243 38.0143 40.981C39.0857 41.3858 40.2629 41.5101 41.212 41.3572C41.6574 41.2789 42.0822 41.5762 42.161 42.0213C42.2405 42.4679 41.942 42.894 41.4953 42.972C39.9828 43.0587 38.7208 43.0108 37.5214 42.5783C37.0143 44.1421 36.4678 45.6875 35.9049 47.226C37.015 49.6818 39.8592 49.9328 42.0714 49.377C43.4803 49.005 44.8064 48.1391 46.6631 43.8315C48.5197 39.5238 50 32.1683 50 24.807C50 17.4457 48.5197 10.0838 46.6631 5.77617C44.8064 1.46851 43.4803 0.607417 42.0714 0.2354C39.7288 -0.467009 36.757 0.460603 35.9559 2.24567ZM35.4998 5.59221L31.5707 7.41839C33.5965 8.64617 34.8684 10.1305 35.3253 13.2408V13.248C35.3254 13.2505 35.3254 13.2578 35.3253 13.2602C35.3253 16.8035 32.4332 19.6907 28.8899 19.6907C25.4483 19.6907 22.6243 16.9692 22.4658 13.5627C22.4447 12.8749 22.5224 12.1803 22.5826 11.5973L17.8773 13.7835C19.3262 15.1381 20.1052 16.6164 20.3548 18.8729C20.3548 22.4162 17.4627 25.3098 13.9194 25.3098C10.9926 25.2229 7.30754 23.1021 7.50643 18.604L3.91985 20.2701C1.53133 21.5583 -0.02083 23.8287 0.000211289 26.3742V31.0378C0.000211289 33.0309 1.63697 34.6613 3.63001 34.6613C4.40232 34.6613 5.02279 34.255 5.61296 33.8386V36.6522C5.61296 38.6452 7.2497 40.274 9.24276 40.274C11.2358 40.274 12.8662 38.6452 12.8662 36.6522L12.8727 29.1269L22.653 33.6722C21.7262 29.5037 24.4906 25.5228 28.8899 25.5515C32.4332 25.5515 35.3269 28.4372 35.3269 31.9805C35.1477 35.1712 33.2277 36.8391 31.6347 37.8462L36.5801 40.1444C39.5447 30.3554 40.7019 19.8929 35.4998 5.59221ZM29.7382 8.2714C27.94 9.10723 26.1417 9.94193 24.3431 10.7777C24.1775 11.5519 24.0197 12.3862 24.0998 13.4841C24.2162 16.0341 26.3071 18.0565 28.8899 18.0565C31.5455 18.0565 33.6831 15.9212 33.6865 13.2664C33.5887 11.0956 31.7362 9.3042 29.7382 8.2714ZM31.3578 11.5539C31.78 12.122 32.0304 12.7764 32.0412 13.4472C32.0654 15.3887 30.3672 16.5675 28.8899 16.6129C27.5231 16.6129 26.3452 15.7364 25.9131 14.5068C25.7619 14.0789 25.9872 13.6096 26.4157 13.46C26.8435 13.3088 27.3128 13.5342 27.4624 13.9626C27.6686 14.5492 28.2223 14.9725 28.8899 14.9725C29.7322 14.9725 30.3907 14.3073 30.396 13.4665C30.3904 13.2394 30.2643 12.8379 30.0391 12.535C29.7675 12.1711 29.8435 11.6557 30.2087 11.3859C30.6855 11.1263 31.0795 11.2133 31.3578 11.5539ZM16.2593 14.5355L9.1597 17.8356C9.08472 20.7914 10.6669 23.2834 13.9194 23.6693C16.577 23.6693 18.7159 21.5303 18.7159 18.8727C18.6918 17.3775 17.6539 15.6471 16.2593 14.5355ZM16.12 18.511C16.5713 18.5119 16.937 18.8775 16.9378 19.3289C16.9378 20.9856 15.5762 22.3473 13.9194 22.3473C12.9346 22.3473 12.0491 21.8674 11.4995 21.1309C11.2323 20.7682 11.3081 20.2577 11.6692 19.9882C12.0314 19.7154 12.5465 19.7885 12.8183 20.1515C13.0702 20.4891 13.4611 20.7068 13.9194 20.7068C14.6905 20.7068 15.2974 20.1 15.2974 19.3289C15.2982 18.8757 15.6668 18.5092 16.12 18.511ZM35.4358 18.8727C35.9555 18.8706 36.3773 19.2925 36.3752 19.8122C36.3728 20.3288 35.9524 20.7457 35.4358 20.7436C34.9217 20.7422 34.505 20.3263 34.5027 19.8122C34.5003 19.2949 34.9185 18.8742 35.4358 18.8727ZM23.2724 19.8074C23.7921 19.8052 24.214 20.2271 24.2119 20.7468C24.2102 21.2641 23.7896 21.682 23.2724 21.6799C22.7577 21.6785 22.3407 21.2616 22.3393 20.7468C22.3369 20.2296 22.7552 19.8088 23.2724 19.8074ZM29.8214 21.6767C30.3405 21.6746 30.7621 22.0954 30.7609 22.6145C30.7592 23.1318 30.3386 23.5497 29.8214 23.5476C29.3073 23.5453 28.8914 23.1287 28.8899 22.6145C28.8883 22.0986 29.3054 21.679 29.8214 21.6767ZM36.3704 26.3548C36.8901 26.3527 37.312 26.7745 37.3099 27.2942C37.3074 27.8109 36.887 28.2278 36.3704 28.2257C35.8569 28.2234 35.4412 27.8078 35.439 27.2942C35.4365 26.7777 35.8538 26.3571 36.3704 26.3548ZM19.529 26.3572C20.0487 26.3551 20.4705 26.7769 20.4684 27.2967C20.466 27.8133 20.0456 28.2303 19.529 28.2281C19.0155 28.2258 18.5998 27.8101 18.5975 27.2967C18.5951 26.7801 19.0124 26.3595 19.529 26.3572ZM28.8899 27.1895C24.8002 27.2173 23.8339 30.8637 24.4599 34.5099L29.8726 37.0242C31.7703 35.9558 33.5777 34.3826 33.6864 31.9732C33.7075 29.7668 31.9199 27.2683 28.8899 27.1895ZM28.8899 28.9036C31.471 29.0123 32.6296 31.5337 31.1226 33.5128C30.8506 33.8769 30.3343 33.9502 29.9718 33.6761C29.6088 33.4042 29.5356 32.8892 29.8086 32.527C30.4798 31.492 29.7303 30.5789 28.8899 30.5424C28.3434 30.5424 27.8911 30.8907 27.728 31.3715C27.583 31.801 27.1169 32.0312 26.6877 31.8852C26.2582 31.7403 26.028 31.2741 26.174 30.8449C26.5581 29.7122 27.638 28.9036 28.8899 28.9036ZM14.5164 32.4437V34.2522L35.3397 43.9397C35.5204 43.4196 35.7029 42.8997 35.8759 42.3776L14.5164 32.4437Z" fill="black"/>
</svg>
